<?xml version="1.0" encoding="UTF-8" standalone="no"?>
<!-- Created with Inkscape (http://www.inkscape.org/) -->

<svg
   version="1.1"
   id="svg9"
   xml:space="preserve"
   width="1600"
   height="1600"
   viewBox="0 0 1600 1600"
   sodipodi:docname="movar-logo-grande.svg"
   inkscape:version="1.1 (c68e22c387, 2021-05-23)"
   xmlns:inkscape="http://www.inkscape.org/namespaces/inkscape"
   xmlns:sodipodi="http://sodipodi.sourceforge.net/DTD/sodipodi-0.dtd"
   xmlns="http://www.w3.org/2000/svg"
   xmlns:svg="http://www.w3.org/2000/svg"><defs
     id="defs13"><clipPath
       clipPathUnits="userSpaceOnUse"
       id="clipPath23"><path
         d="M 0,1200 H 1200 V 0 H 0 Z"
         id="path21" /></clipPath><clipPath
       clipPathUnits="userSpaceOnUse"
       id="clipPath51"><path
         d="m 784.273,374.858 h 79.496 v -88.847 h -79.496 z"
         id="path49" /></clipPath><clipPath
       clipPathUnits="userSpaceOnUse"
       id="clipPath55"><path
         d="m 784.273,374.858 h 79.496 v -88.847 h -79.496 z"
         id="path53" /></clipPath><clipPath
       clipPathUnits="userSpaceOnUse"
       id="clipPath107"><path
         d="m 242.714,338.08 h 30.494 v -7.22 h -30.494 z"
         id="path105" /></clipPath><clipPath
       clipPathUnits="userSpaceOnUse"
       id="clipPath127"><path
         d="m 363.843,377.284 h 68.804 v -91.776 h -68.804 z"
         id="path125" /></clipPath><clipPath
       clipPathUnits="userSpaceOnUse"
       id="clipPath131"><path
         d="m 363.843,377.284 h 68.804 v -91.776 h -68.804 z"
         id="path129" /></clipPath><clipPath
       clipPathUnits="userSpaceOnUse"
       id="clipPath163"><path
         d="m 442.849,377.303 h 68.323 v -94.03 h -68.323 z"
         id="path161" /></clipPath></defs><sodipodi:namedview
     id="namedview11"
     pagecolor="#ffffff"
     bordercolor="#666666"
     borderopacity="1.0"
     inkscape:pageshadow="2"
     inkscape:pageopacity="0.0"
     inkscape:pagecheckerboard="0"
     showgrid="false"
     inkscape:zoom="0.393125"
     inkscape:cx="800"
     inkscape:cy="800"
     inkscape:window-width="1600"
     inkscape:window-height="837"
     inkscape:window-x="-8"
     inkscape:window-y="-8"
     inkscape:window-maximized="1"
     inkscape:current-layer="g15" /><g
     id="g15"
     inkscape:groupmode="layer"
     inkscape:label="logo final movar 26"
     transform="matrix(1.3333333,0,0,-1.3333333,0,1600)"><g
       id="g17"
       transform="matrix(1.286033,0,0,1.286033,-181.02133,-166.80286)"><g
         id="g19"
         clip-path="url(#clipPath23)"><g
           id="g25"
           transform="translate(300.7808,618.1099)"><path
             d="m 0,0 c 1.362,140.369 -2.07,183.482 -0.218,331.89 l 138.553,-75.158 0.309,-246.913 30.254,-20.371 v 251.461 l 130.679,-74.744 -0.135,-328.275 -50.582,25.962 0.545,268.134 -32.454,21.018 -0.309,-271.636 -130.566,73.253 0.064,273.428 -34.122,18.154 1.283,-275.657 z"
             style="fill:#0d4f5e;fill-opacity:1;fill-rule:nonzero;stroke:none"
             id="path27" /></g><g
           id="g29"
           transform="translate(911,820.3896)"><path
             d="M 0,0 -0.675,129.61 -287.887,-33.702 V -364.39 L 0,-202.28 l -50.33,40.9 -193.322,-106.524 -0.788,189.194 194.11,110.273 v -58.329 z"
             style="fill:#06a7cc;fill-opacity:1;fill-rule:nonzero;stroke:none"
             id="path31" /></g><g
           id="g33"
           transform="translate(622.7119,284.9492)"><path
             d="m 0,0 c -0.492,0 -2.99,0.059 -3.479,0.173 -3.76,0.874 -6.125,4.844 -5.275,8.848 L 7.524,85.706 c 0.682,3.216 3.31,5.577 6.391,5.744 0.13,0.008 0.255,0.011 0.378,0.011 2.94,0 5.56,-2.014 6.515,-5.011 L 38.681,35.313 56.554,86.451 c 0.955,2.996 3.581,5.009 6.534,5.009 0.119,0 0.238,-0.003 0.357,-0.01 3.081,-0.167 5.709,-2.528 6.392,-5.744 L 86.115,9.021 C 86.965,5.017 84.6,1.047 80.843,0.173 80.354,0.06 77.857,0.001 77.365,0.001 c -3.191,0 -8.369,2.715 -9.077,6.05 l -8,43 L 45.224,7.013 C 44.27,4.018 41.64,3.004 38.681,3.004 c -2.959,0 -5.589,1.014 -6.545,4.01 l -15.848,41.037 -7,-42 C 8.579,2.716 3.188,0 0,0"
             style="fill:#0d4f5e;fill-opacity:1;fill-rule:nonzero;stroke:none"
             id="path35" /></g><g
           id="g37"
           transform="translate(746.9326,355.8818)"><path
             d="m 0,0 c -11.148,0 -20.219,-11.306 -20.219,-25.202 0,-13.897 9.071,-25.202 20.219,-25.202 11.148,0 20.219,11.305 20.219,25.202 C 20.219,-11.306 11.148,0 0,0 m 0,-71.127 c -22.094,0 -40.067,20.603 -40.067,45.925 0,25.323 17.973,45.925 40.067,45.925 22.094,0 40.067,-20.602 40.067,-45.925 0,-25.322 -17.973,-45.925 -40.067,-45.925"
             style="fill:#0d4f5e;fill-opacity:1;fill-rule:nonzero;stroke:none"
             id="path39" /></g><g
           id="g41"
           transform="translate(746.9326,356.7598)"><path
             d="m 0,0 c -11.635,0 -21.101,-11.7 -21.101,-26.08 0,-14.38 9.466,-26.08 21.101,-26.08 11.635,0 21.101,11.7 21.101,26.08 C 21.101,-11.7 11.635,0 0,0 m 0,-71.127 c -21.607,0 -39.187,20.208 -39.187,45.047 0,24.839 17.58,45.047 39.187,45.047 21.607,0 39.186,-20.208 39.186,-45.047 0,-24.839 -17.579,-45.047 -39.186,-45.047"
             style="fill:#0d4f5e;fill-opacity:1;fill-rule:nonzero;stroke:none"
             id="path43" /></g><g
           id="g45"><g
             id="g47" /><g
             id="g71"><g
               clip-path="url(#clipPath51)"
               id="g69"><g
                 id="g67"><g
                   id="g57" /><g
                   id="g65"><g
                     clip-path="url(#clipPath55)"
                     id="g63"><g
                       transform="translate(824.0215,286.0107)"
                       id="g61"><path
                         d="m 0,0 c -3.894,0 -7.429,2.342 -9.004,5.967 l -29.904,68.8 c -2.19,5.036 0.049,10.961 4.989,13.207 1.275,0.579 2.625,0.874 4.012,0.874 3.894,0 7.429,-2.344 9.007,-5.971 L 0,34.793 20.9,82.877 c 1.577,3.627 5.113,5.97 9.008,5.97 1.386,0 2.736,-0.294 4.01,-0.874 4.941,-2.245 7.179,-8.17 4.99,-13.206 L 9.004,5.967 C 7.428,2.342 3.895,0 0,0"
                         style="fill:#0d4f5e;fill-opacity:1;fill-rule:nonzero;stroke:none"
                         id="path59" /></g></g></g></g></g></g></g><g
           id="g73"
           transform="translate(824.0215,285.7529)"><path
             d="M 0,0 C -3.917,0 -7.472,2.355 -9.056,6.002 L -39.134,75.2 c -2.202,5.067 0.049,11.026 5.019,13.284 1.282,0.583 2.639,0.879 4.035,0.879 3.917,0 7.473,-2.356 9.059,-6.005 L 0,34.995 21.021,83.358 c 1.586,3.648 5.142,6.004 9.061,6.004 1.394,0 2.751,-0.296 4.033,-0.879 4.97,-2.257 7.221,-8.216 5.019,-13.283 L 9.056,6.002 C 7.472,2.355 3.917,0 0,0"
             style="fill:#0d4f5e;fill-opacity:1;fill-rule:nonzero;stroke:none"
             id="path75" /></g><g
           id="g77"
           transform="translate(824.0215,286.6064)"><path
             d="m 0,0 c -3.565,0 -6.798,2.147 -8.246,5.48 l -30.077,69.199 c -2.024,4.655 0.027,10.108 4.581,12.177 4.555,2.075 9.886,-0.027 11.91,-4.683 L 0,31.945 21.832,82.173 c 2.024,4.656 7.356,6.754 11.91,4.683 4.554,-2.069 6.605,-7.522 4.581,-12.177 L 8.245,5.48 C 6.798,2.147 3.565,0 0,0"
             style="fill:#0d4f5e;fill-opacity:1;fill-rule:nonzero;stroke:none"
             id="path79" /></g><g
           id="g81"
           transform="translate(895.7627,323.3779)"><path
             d="M 0,0 -6.925,16.694 -13.849,0 Z m -36.391,-39.113 c -1.366,0 -2.695,0.303 -3.952,0.902 -4.868,2.317 -7.073,8.436 -4.915,13.636 l 29.463,71.03 c 1.552,3.742 5.034,6.16 8.87,6.16 3.837,0 7.32,-2.418 8.871,-6.16 l 29.463,-71.03 c 2.157,-5.2 -0.048,-11.319 -4.916,-13.636 -1.256,-0.599 -2.585,-0.902 -3.95,-0.902 -3.838,0 -7.322,2.419 -8.875,6.162 l -5.083,12.256 h -31.019 l -5.083,-12.256 c -1.552,-3.743 -5.036,-6.162 -8.874,-6.162"
             style="fill:#0d4f5e;fill-opacity:1;fill-rule:nonzero;stroke:none"
             id="path83" /></g><g
           id="g85"
           transform="translate(880.6152,322.501)"><path
             d="M 0,0 8.223,19.825 16.446,0 Z M 45.763,-24.039 16.3,46.991 c -1.418,3.42 -4.584,5.624 -8.077,5.624 -3.493,0 -6.659,-2.204 -8.077,-5.624 l -29.462,-71.03 c -1.984,-4.78 0.026,-10.377 4.486,-12.501 4.463,-2.126 9.685,0.027 11.667,4.808 l 5.306,12.791 h 32.161 l 5.305,-12.791 c 1.464,-3.53 4.696,-5.627 8.081,-5.627 1.2,0 2.419,0.263 3.585,0.819 4.461,2.124 6.471,7.721 4.488,12.501"
             style="fill:#0d4f5e;fill-opacity:1;fill-rule:nonzero;stroke:none"
             id="path87" /></g><g
           id="g89"
           transform="translate(973.4365,340.3633)"><path
             d="m 0,0 c 1.986,0 3.857,0.767 5.269,2.16 1.419,1.406 2.203,3.279 2.203,5.274 0,1.994 -0.784,3.867 -2.204,5.274 C 3.857,14.101 1.986,14.868 0,14.868 H -19.481 V 0 Z m 18.018,-56.393 c -2.826,0 -5.48,1.086 -7.474,3.058 l -30.025,29.689 v -22.366 c 0,-5.724 -4.732,-10.381 -10.547,-10.381 -5.816,0 -10.545,4.657 -10.545,10.381 v 71.261 c 0,5.724 4.729,10.381 10.545,10.381 L 0,35.63 c 7.64,0 14.818,-2.939 20.214,-8.276 5.385,-5.322 8.349,-12.396 8.349,-19.92 0,-7.525 -2.964,-14.6 -8.35,-19.921 -3.777,-3.737 -8.462,-6.31 -13.632,-7.503 L 25.49,-38.688 c 4.087,-4.039 4.087,-10.609 0,-14.647 -1.991,-1.972 -4.645,-3.058 -7.472,-3.058"
             style="fill:#0d4f5e;fill-opacity:1;fill-rule:nonzero;stroke:none"
             id="path91" /></g><g
           id="g93"
           transform="translate(752.4414,688.8979)"><path
             d="m 0,0 -1.86,-45.912 110.759,58.43 -0.67,-42.406 50.33,-40.9 -0.813,155.304 z"
             style="fill:#06a7cc;fill-opacity:1;fill-rule:nonzero;stroke:none"
             id="path95" /></g><g
           id="g97"
           transform="translate(270.0439,337.1777)"><path
             d="m 0,0 h -21.797 c -4.815,0 -8.719,-4.365 -8.719,-9.748 0,-5.383 3.904,-9.748 8.719,-9.748 h 13.078 v -4.439 c -0.212,-0.214 -0.44,-0.4 -0.635,-0.642 -4.127,-5.105 -9.616,-7.916 -15.456,-7.916 -12.019,0 -21.796,12.025 -21.796,26.806 0,14.782 9.777,26.807 21.796,26.807 6.896,0 13.462,-4.091 17.566,-10.942 2.679,-4.475 8.094,-5.671 12.096,-2.676 4.001,2.995 5.072,9.05 2.393,13.523 -7.347,12.267 -19.331,19.591 -32.055,19.591 -21.633,0 -39.234,-20.771 -39.234,-46.303 0,-25.531 17.601,-46.301 39.234,-46.301 10.834,0 20.916,5.092 28.392,14.338 0.98,1.212 5.137,5.157 5.137,11.656 V -9.748 C 8.719,-4.365 4.815,0 0,0"
             style="fill:#06a7cc;fill-opacity:1;fill-rule:nonzero;stroke:none"
             id="path99" /></g><g
           id="g101"><g
             id="g103" /><g
             id="g115"><g
               clip-path="url(#clipPath107)"
               opacity="0.300003"
               id="g113"><g
                 transform="translate(270.7886,338.0801)"
                 id="g111"><path
                   d="m 0,0 h -19.935 c -3.697,0 -6.859,-2.809 -8.139,-6.762 2.1,-0.294 4.241,-0.458 6.422,-0.458 8.808,0 17.044,2.484 24.071,6.797 C 1.65,-0.153 0.84,0 0,0"
                   style="fill:#06a7cc;fill-opacity:1;fill-rule:nonzero;stroke:none"
                   id="path109" /></g></g></g></g><g
           id="g117"
           transform="translate(326.7192,341.6602)"><path
             d="M 0,0 C 1.885,0 3.66,0.76 4.999,2.14 6.347,3.533 7.09,5.388 7.09,7.363 7.09,9.338 6.347,11.193 4.998,12.587 3.66,13.967 1.885,14.727 0,14.727 H -18.488 V 0 Z m 17.098,-55.855 c -2.681,0 -5.201,1.076 -7.093,3.029 l -28.493,29.406 v -22.153 c 0,-5.67 -4.49,-10.282 -10.009,-10.282 -5.518,0 -10.007,4.612 -10.007,10.282 v 70.582 c 0,5.669 4.489,10.281 10.007,10.281 H 0 c 7.25,0 14.062,-2.91 19.182,-8.196 5.11,-5.271 7.923,-12.279 7.923,-19.731 0,-7.453 -2.813,-14.46 -7.924,-19.731 -3.584,-3.7 -8.03,-6.249 -12.936,-7.431 l 17.944,-18.52 c 3.878,-4 3.878,-10.508 0,-14.507 -1.889,-1.953 -4.408,-3.029 -7.091,-3.029"
             style="fill:#06a7cc;fill-opacity:1;fill-rule:nonzero;stroke:none"
             id="path119" /></g><g
           id="g121"><g
             id="g123" /><g
             id="g147"><g
               clip-path="url(#clipPath127)"
               id="g145"><g
                 id="g143"><g
                   id="g133" /><g
                   id="g141"><g
                     clip-path="url(#clipPath131)"
                     id="g139"><g
                       transform="translate(398.2446,285.5088)"
                       id="g137"><path
                         d="m 0,0 c -18.969,0 -34.402,17.042 -34.402,37.99 v 43.432 c 0,5.709 4.219,10.353 9.406,10.353 5.186,0 9.405,-4.644 9.405,-10.353 V 37.99 c 0,-9.53 6.994,-17.284 15.591,-17.284 8.597,0 15.591,7.754 15.591,17.284 v 43.432 c 0,5.709 4.22,10.353 9.406,10.353 5.186,0 9.405,-4.644 9.405,-10.353 V 37.99 C 34.402,17.042 18.969,0 0,0"
                         style="fill:#06a7cc;fill-opacity:1;fill-rule:nonzero;stroke:none"
                         id="path135" /></g></g></g></g></g></g></g><g
           id="g149"
           transform="translate(398.2446,285.2441)"><path
             d="m 0,0 c -19.079,0 -34.601,17.141 -34.601,38.21 v 43.682 c 0,5.742 4.244,10.413 9.46,10.413 5.217,0 9.46,-4.671 9.46,-10.413 V 38.21 c 0,-9.586 7.035,-17.385 15.681,-17.385 8.646,0 15.681,7.799 15.681,17.385 v 43.682 c 0,5.742 4.244,10.413 9.46,10.413 5.216,0 9.46,-4.671 9.46,-10.413 V 38.21 C 34.601,17.141 19.079,0 0,0"
             style="fill:#06a7cc;fill-opacity:1;fill-rule:nonzero;stroke:none"
             id="path151" /></g><g
           id="g153"
           transform="translate(398.2446,286.126)"><path
             d="M 0,0 C -18.616,0 -33.76,16.745 -33.76,37.328 V 81.01 c 0,5.262 3.859,9.53 8.619,9.53 4.761,0 8.62,-4.268 8.62,-9.53 V 37.328 c 0,-10.072 7.411,-18.266 16.521,-18.266 9.11,0 16.521,8.194 16.521,18.266 V 81.01 c 0,5.262 3.859,9.53 8.62,9.53 4.76,0 8.619,-4.268 8.619,-9.53 V 37.328 C 33.76,16.745 18.616,0 0,0"
             style="fill:#06a7cc;fill-opacity:1;fill-rule:nonzero;stroke:none"
             id="path155" /></g><g
           id="g157"><g
             id="g159" /><g
             id="g171"><g
               clip-path="url(#clipPath163)"
               id="g169"><g
                 transform="translate(455.6104,283.2764)"
                 id="g167"><path
                   d="m 0,0 c -5.561,-0.162 -10.238,4.421 -10.425,10.218 l -2.331,72.16 c -0.187,5.797 4.185,10.644 9.746,10.808 0.102,0.002 0.202,-0.001 0.302,-0.005 l 0.122,-0.004 0.041,0.009 c 0.1,0.01 0.199,0.019 0.301,0.022 l 27.57,0.807 C 41.444,94.486 55,81.162 55.545,64.313 56.089,47.464 43.418,33.372 27.3,32.9 L 9.05,32.367 9.746,10.808 C 9.934,5.011 5.561,0.163 0,0 m 26.621,53.925 c 4.996,0.146 8.922,4.541 8.753,9.798 -0.17,5.256 -4.373,9.414 -9.369,9.267 L 8.521,72.479 9.137,53.414 Z"
                   style="fill:#06a7cc;fill-opacity:1;fill-rule:nonzero;stroke:none"
                   id="path165" /></g></g></g></g><g
           id="g173"
           transform="translate(482.2563,337.2402)"><path
             d="m 0,0 c 5.025,0.146 8.974,4.566 8.803,9.854 -0.171,5.287 -4.397,9.467 -9.422,9.321 l -17.585,-0.515 0.619,-19.175 z m -26.774,-54.236 c -5.594,-0.163 -10.297,4.446 -10.486,10.276 l -2.344,72.577 c -0.188,5.829 4.209,10.705 9.803,10.869 0.102,0.003 0.203,-10e-4 0.304,-0.005 l 0.122,-0.003 0.041,0.008 c 0.101,0.011 0.201,0.02 0.303,0.023 L -1.302,40.32 C 14.909,40.794 28.543,27.394 29.091,10.447 29.638,-6.499 16.895,-20.672 0.683,-21.146 l -18.355,-0.537 0.7,-21.683 c 0.188,-5.83 -4.209,-10.706 -9.802,-10.87"
             style="fill:#06a7cc;fill-opacity:1;fill-rule:nonzero;stroke:none"
             id="path175" /></g><g
           id="g177"
           transform="translate(556.0654,356.2744)"><path
             d="m 0,0 c -11.148,0 -20.218,-11.306 -20.218,-25.202 0,-13.897 9.07,-25.202 20.218,-25.202 11.148,0 20.218,11.305 20.218,25.202 C 20.218,-11.306 11.148,0 0,0 m 0,-71.127 c -22.092,0 -40.065,20.603 -40.065,45.925 0,25.323 17.973,45.925 40.065,45.925 22.093,0 40.066,-20.602 40.066,-45.925 0,-25.322 -17.973,-45.925 -40.066,-45.925"
             style="fill:#06a7cc;fill-opacity:1;fill-rule:nonzero;stroke:none"
             id="path179" /></g><g
           id="g181"
           transform="translate(556.0654,357.1523)"><path
             d="m 0,0 c -11.634,0 -21.099,-11.7 -21.099,-26.08 0,-14.38 9.465,-26.08 21.099,-26.08 11.634,0 21.1,11.7 21.1,26.08 C 21.1,-11.7 11.634,0 0,0 m 0,-71.127 c -21.606,0 -39.184,20.208 -39.184,45.047 0,24.839 17.578,45.047 39.184,45.047 21.606,0 39.185,-20.208 39.185,-45.047 0,-24.839 -17.579,-45.047 -39.185,-45.047"
             style="fill:#06a7cc;fill-opacity:1;fill-rule:nonzero;stroke:none"
             id="path183" /></g></g></g></g></svg>
